# xmcd
#
# Track frame offsets:
#	150
#	16526
#	30091
#	46911
#	66968
#	82670
#	99066
#	120189
#	134675
#	150254
#	169372
#	189842
#
# Disc length: 2725 seconds
#
# Revision: 1
# Processed by: cddbd v1.5.2PL0 Copyright (c) Steve Scherf et al.
# Submitted via: audiograbber 1.83.01
#
DISCID=750aa30c
DTITLE=Divorcees - Last Of The Free Men
DYEAR=2009
DGENRE=Country
TTITLE0=Letter On The Window
TTITLE1=Born Ready
TTITLE2=My '83
TTITLE3=After The Strom Is Gone ( Feat Angela Desveaux)
TTITLE4=The Boys
TTITLE5=Take Me Where My Boots Are Walking
TTITLE6=When I Say
TTITLE7=Mining Man
TTITLE8=God, Damn That Bottle
TTITLE9=Lights Of Town
TTITLE10=Shoot Tro Thrill
TTITLE11=Last Of The Free Men
EXTD=Moncton Band
EXTT0=
EXTT1=
EXTT2=
EXTT3=
EXTT4=
EXTT5=
EXTT6=
EXTT7=
EXTT8=
EXTT9=
EXTT10=
EXTT11=
PLAYORDER=
